<svg xmlns="http://www.w3.org/2000/svg" viewBox="0 0 128 128" id="hotel">
  <path d="M58.84 17.73l-1 5.22a1 1 0 00.4 1 1 1 0 001.06.07L64 21.47 68.67 24a1 1 0 001.06-.07 1 1 0 00.4-1l-1-5.22L73 14.07a1 1 0 00.26-1 1 1 0 00-.82-.68l-5.26-.69L64.9 6.87a1 1 0 00-1.8 0l-2.29 4.8-5.26.69a1 1 0 00-.82.68 1 1 0 00.26 1zm2.77-4.15a1 1 0 00.77-.56L64 9.63 65.62 13a1 1 0 00.77.56l3.72.49-2.72 2.58a1 1 0 00-.3.91l.69 3.69-3.3-1.79a1 1 0 00-1 0l-3.3 1.79.69-3.69a1 1 0 00-.3-.91l-2.72-2.58zM34.26 28.32l-1 5.22a1 1 0 001.46 1.06l4.66-2.53 4.67 2.53a1 1 0 001.46-1.06l-1-5.22 3.85-3.65a1 1 0 00.27-1 1 1 0 00-.82-.68l-5.27-.69-2.28-4.8a1 1 0 00-1.81 0l-2.28 4.8L31 23a1 1 0 00-.82.68 1 1 0 00.26 1zM37 24.17a1 1 0 00.77-.56l1.61-3.39L41 23.61a1 1 0 00.77.56l3.73.49L42.8 27.24a1 1 0 00-.29.91l.68 3.69-3.3-1.79a1 1 0 00-1 0l-3.3 1.79.68-3.69a1 1 0 00-.29-.91L33.3 24.66zM83.43 28.32l-1 5.22a1 1 0 00.4 1 1 1 0 001.06.07l4.67-2.53 4.66 2.53a1 1 0 001.07-.07 1 1 0 00.39-1l-1-5.22 3.86-3.65a1 1 0 00.26-1A1 1 0 0097 23l-5.27-.69-2.28-4.8a1 1 0 00-1.81 0l-2.28 4.8L80.13 23a1 1 0 00-.82.68 1 1 0 00.27 1zm2.77-4.15a1 1 0 00.77-.56l1.62-3.39 1.61 3.39a1 1 0 00.77.56l3.73.49L92 27.24a1 1 0 00-.29.91l.68 3.69-3.3-1.79a1 1 0 00-1 0l-3.3 1.79.68-3.69a1 1 0 00-.29-.91l-2.73-2.58zM13.48 45.79l-1 5.22a1 1 0 00.4 1 1 1 0 001.06.07l4.67-2.54 4.66 2.54A1 1 0 0024.77 51l-1-5.22 3.85-3.65a1 1 0 00.26-1 1 1 0 00-.82-.69l-5.26-.69-2.29-4.79a1 1 0 00-1.8 0l-2.29 4.79-5.26.69a1 1 0 00-.82.69 1 1 0 00.26 1zm2.77-4.15a1 1 0 00.77-.56l1.62-3.39 1.62 3.39a1 1 0 00.77.56l3.72.49L22 44.72a1 1 0 00-.3.91l.69 3.69-3.3-1.79a1 1 0 00-1 0l-3.3 1.79.69-3.69a1 1 0 00-.3-.91l-2.72-2.59zM104.2 45.79l-1 5.22a1 1 0 001.47 1.07l4.66-2.54L114 52.08a1 1 0 001.06-.07 1 1 0 00.4-1l-1-5.22 3.85-3.65a1 1 0 00.26-1 1 1 0 00-.82-.69l-5.26-.69-2.29-4.79a1 1 0 00-1.8 0l-2.29 4.79-5.26.69a1 1 0 00-.82.69 1 1 0 00.26 1zM107 41.64a1 1 0 00.77-.56l1.62-3.39L111 41.08a1 1 0 00.77.56l3.72.49-2.72 2.59a1 1 0 00-.3.91l.69 3.69-3.3-1.79a1 1 0 00-1 0l-3.3 1.79.69-3.69a1 1 0 00-.3-.91l-2.72-2.59zM117.7 69.35H90V48a1 1 0 00-1-1H83.12V40.86a1 1 0 00-1-1H45.88a1 1 0 00-1 1V47H39a1 1 0 00-1 1v21.4H10.3a4 4 0 00-4 4V120.7a1 1 0 001 1H120.7a1 1 0 001-1V73.35A4 4 0 00117.7 69.35zM46.88 41.86H81.12V47H46.88zM8.3 73.35a2 2 0 012-2H38V119.7H8.3zM40 49H88V119.7H74.77V108.6h5.89a1 1 0 000-2H47.34a1 1 0 000 2h6v11.1H40zM55.36 108.6H63v11.1H55.36zM65 119.7V108.6h7.77v11.1zm54.7 0H90V71.35h27.7a2 2 0 012 2z"></path>
  <path d="M50.69 67H61.08a1 1 0 001-1V55.58a1 1 0 00-1-1H50.69a1 1 0 00-1 1V66A1 1 0 0050.69 67zm1-10.39h8.39V65H51.69zM50.69 83.93H61.08a1 1 0 001-1V72.54a1 1 0 00-1-1H50.69a1 1 0 00-1 1V82.93A1 1 0 0050.69 83.93zm1-10.39h8.39v8.39H51.69zM50.69 100.89H61.08a1 1 0 001-1V89.5a1 1 0 00-1-1H50.69a1 1 0 00-1 1V99.89A1 1 0 0050.69 100.89zm1-10.39h8.39v8.39H51.69zM66.92 67H77.31a1 1 0 001-1V55.58a1 1 0 00-1-1H66.92a1 1 0 00-1 1V66A1 1 0 0066.92 67zm1-10.39h8.39V65H67.92zM66.92 83.93H77.31a1 1 0 001-1V72.54a1 1 0 00-1-1H66.92a1 1 0 00-1 1V82.93A1 1 0 0066.92 83.93zm1-10.39h8.39v8.39H67.92zM66.92 100.89H77.31a1 1 0 001-1V89.5a1 1 0 00-1-1H66.92a1 1 0 00-1 1V99.89A1 1 0 0066.92 100.89zm1-10.39h8.39v8.39H67.92zM20.6 76.74H12.86a1 1 0 00-1 1v7.73a1 1 0 001 1H20.6a1 1 0 001-1V77.74A1 1 0 0020.6 76.74zm-1 7.73H13.86V78.74H19.6zM33.44 76.74H25.71a1 1 0 00-1 1v7.73a1 1 0 001 1h7.73a1 1 0 001-1V77.74A1 1 0 0033.44 76.74zm-1 7.73H26.71V78.74h5.73zM20.6 90.66H12.86a1 1 0 00-1 1v7.73a1 1 0 001 1H20.6a1 1 0 001-1V91.66A1 1 0 0020.6 90.66zm-1 7.73H13.86V92.66H19.6zM33.44 90.66H25.71a1 1 0 00-1 1v7.73a1 1 0 001 1h7.73a1 1 0 001-1V91.66A1 1 0 0033.44 90.66zm-1 7.73H26.71V92.66h5.73zM20.6 104.57H12.86a1 1 0 00-1 1v7.74a1 1 0 001 1H20.6a1 1 0 001-1v-7.74A1 1 0 0020.6 104.57zm-1 7.74H13.86v-5.74H19.6zM33.44 104.57H25.71a1 1 0 00-1 1v7.74a1 1 0 001 1h7.73a1 1 0 001-1v-7.74A1 1 0 0033.44 104.57zm-1 7.74H26.71v-5.74h5.73zM102.29 76.74H94.56a1 1 0 00-1 1v7.73a1 1 0 001 1h7.73a1 1 0 001-1V77.74A1 1 0 00102.29 76.74zm-1 7.73H95.56V78.74h5.73zM115.14 76.74H107.4a1 1 0 00-1 1v7.73a1 1 0 001 1h7.74a1 1 0 001-1V77.74A1 1 0 00115.14 76.74zm-1 7.73H108.4V78.74h5.74zM102.29 90.66H94.56a1 1 0 00-1 1v7.73a1 1 0 001 1h7.73a1 1 0 001-1V91.66A1 1 0 00102.29 90.66zm-1 7.73H95.56V92.66h5.73zM115.14 90.66H107.4a1 1 0 00-1 1v7.73a1 1 0 001 1h7.74a1 1 0 001-1V91.66A1 1 0 00115.14 90.66zm-1 7.73H108.4V92.66h5.74zM102.29 104.57H94.56a1 1 0 00-1 1v7.74a1 1 0 001 1h7.73a1 1 0 001-1v-7.74A1 1 0 00102.29 104.57zm-1 7.74H95.56v-5.74h5.73zM115.14 104.57H107.4a1 1 0 00-1 1v7.74a1 1 0 001 1h7.74a1 1 0 001-1v-7.74A1 1 0 00115.14 104.57zm-1 7.74H108.4v-5.74h5.74z"></path>
</svg>
