<svg xmlns="http://www.w3.org/2000/svg" viewBox="0 0 64 64" id="travel-bag">
  <g>
    <path d="M43,32H21a1,1,0,0,1,0-2H43a1,1,0,0,1,0,2Z"></path>
    <path d="M50,32a1,1,0,0,1,0-2,6.006,6.006,0,0,0,6-6V13a1.177,1.177,0,0,0-1.272-1H9.272A1.177,1.177,0,0,0,8,13V24a6.006,6.006,0,0,0,6,6,1,1,0,0,1,0,2,8.009,8.009,0,0,1-8-8V13a3.149,3.149,0,0,1,3.272-3H54.728A3.149,3.149,0,0,1,58,13V24A8.009,8.009,0,0,1,50,32Z"></path>
    <path d="M47,62H17a8.009,8.009,0,0,1-8-8V29.906a1,1,0,0,1,2,0V54a6.006,6.006,0,0,0,6,6H47a6.006,6.006,0,0,0,6-6V29.906a1,1,0,0,1,2,0V54A8.009,8.009,0,0,1,47,62Z"></path>
    <path d="M24 50a2 2 0 1 1 2-2A2 2 0 0 1 24 50zm0-2h0zM40 50a2 2 0 1 1 2-2A2 2 0 0 1 40 50zm0-2h0zM42 12H22a1 1 0 0 1-1-1c0-.09.126-9 11-9s11 8.91 11 9A1 1 0 0 1 42 12zM23.11 10H40.881C40.5 8.06 38.871 4 32 4 25.081 4 23.48 8.06 23.11 10z"></path>
    <path d="M38 12H26a1 1 0 0 1-1-1c0-2.075 1.463-6 7-6s7 3.925 7 6A1 1 0 0 1 38 12zM27.162 10h9.677C36.493 8.8 35.406 7 32 7S27.509 8.8 27.162 10zM3 46a1 1 0 0 1-1-1V37.066a4 4 0 0 1 4-4L9.983 33A1 1 0 0 1 11 34v7a1 1 0 0 1-.5.868l-7 4A1 1 0 0 1 3 46zM9 35.017l-2.983.049a2.006 2.006 0 0 0-2.017 2v6.211L9 40.42z"></path>
    <path d="M10 58H7a3 3 0 0 1-3-3V44a1 1 0 0 1 .486-.858l5-2.995A1 1 0 0 1 11 41V57A1 1 0 0 1 10 58zM6 44.562V55a1 1 0 0 0 1 1H9V42.765zM61 46a1 1 0 0 1-.5-.132l-7-4A1 1 0 0 1 53 41V34a1 1 0 0 1 .3-.713A.942.942 0 0 1 54.017 33l4 .066a4 4 0 0 1 3.983 4V45a1 1 0 0 1-1 1zm-6-5.58l5 2.857V37.066a2 2 0 0 0-2-2l-3-.049z"></path>
    <path d="M57 58H54a1 1 0 0 1-1-1V41a1 1 0 0 1 1.515-.857l5 3A1 1 0 0 1 60 44V55A3 3 0 0 1 57 58zm-2-2h2a1 1 0 0 0 1-1V44.567l-3-1.8zM40 24H24a6.006 6.006 0 0 1-6-6V15a1 1 0 0 1 1-1H45a1 1 0 0 1 1 1v3A6.006 6.006 0 0 1 40 24zM20 16v2a4 4 0 0 0 4 4H40a4 4 0 0 0 4-4V16z"></path>
    <path d="M42,19H22a1,1,0,0,1,0-2H42a1,1,0,0,1,0,2Z"></path>
    <path d="M38 21a1 1 0 0 1-1-1V18a1 1 0 0 1 2 0v2A1 1 0 0 1 38 21zM18 41a1 1 0 0 1-.555-.168l-3-2A1 1 0 0 1 14 38V25a1 1 0 0 1 1-1h6a1 1 0 0 1 1 1V38a1 1 0 0 1-.445.832l-3 2A1 1 0 0 1 18 41zm-2-3.535L18 38.8l2-1.333V26H16z"></path>
    <path d="M18.02 37a1 1 0 0 1-.01-2h.01a1 1 0 0 1 0 2zM22 34H14a1 1 0 0 1 0-2h8a1 1 0 0 1 0 2zM46 41a1 1 0 0 1-.555-.168l-3-2A1 1 0 0 1 42 38V25a1 1 0 0 1 1-1h6a1 1 0 0 1 1 1V38a1 1 0 0 1-.445.832l-3 2A1 1 0 0 1 46 41zm-2-3.535L46 38.8l2-1.333V26H44z"></path>
    <path d="M46.02 37a1 1 0 0 1-.01-2h.01a1 1 0 1 1 0 2zM50 34H42a1 1 0 0 1 0-2h8a1 1 0 0 1 0 2zM32 41a4 4 0 1 1 4-4A4 4 0 0 1 32 41zm0-6a2 2 0 1 0 2 2A2 2 0 0 0 32 35z"></path>
    <path d="M32.02 38a1 1 0 0 1-.01-2h.01a1 1 0 1 1 0 2zM42 58H22a6.006 6.006 0 0 1-6-6V44a1 1 0 0 1 1-1H47a1 1 0 0 1 1 1v8A6.006 6.006 0 0 1 42 58zM18 45v7a4 4 0 0 0 4 4H42a4 4 0 0 0 4-4V45z"></path>
    <path d="M39.91,53H24.09a5.966,5.966,0,0,1-5.366-3.317l-2.619-5.236A1,1,0,0,1,17,43H47a1,1,0,0,1,.9,1.447l-2.619,5.236A5.966,5.966,0,0,1,39.91,53ZM18.618,45l1.9,3.789h0A3.974,3.974,0,0,0,24.09,51H39.91a3.974,3.974,0,0,0,3.577-2.211L45.382,45Z"></path>
  </g>
</svg>
